<svg xmlns="http://www.w3.org/2000/svg" xmlns:xlink="http://www.w3.org/1999/xlink" width="512" zoomAndPan="magnify" viewBox="0 0 384 383.999986" height="512" preserveAspectRatio="xMidYMid meet" version="1.0"><defs><g/></defs><g fill="#f13daa" fill-opacity="1"><g transform="translate(9.287518, 244.338751)"><g><path d="M 338.65625 -152.40625 C 338.8125 -153.351562 338.945312 -154.273438 339.0625 -155.171875 C 339.175781 -156.078125 339.234375 -156.960938 339.234375 -157.828125 C 339.234375 -161.128906 338.585938 -164.289062 337.296875 -167.3125 C 336.003906 -170.34375 334.117188 -173.015625 331.640625 -175.328125 C 329.160156 -177.648438 326.148438 -179.5 322.609375 -180.875 C 319.078125 -182.25 315.113281 -182.9375 310.71875 -182.9375 C 306.082031 -182.9375 301.171875 -181.929688 295.984375 -179.921875 C 290.796875 -177.921875 285.609375 -174.410156 280.421875 -169.390625 C 275.390625 -164.515625 270.222656 -158.242188 264.921875 -150.578125 C 259.617188 -142.921875 254.351562 -134.472656 249.125 -125.234375 C 243.894531 -116.003906 238.785156 -106.28125 233.796875 -96.0625 C 228.804688 -85.851562 224.070312 -75.796875 219.59375 -65.890625 C 215.113281 -55.992188 210.988281 -46.523438 207.21875 -37.484375 C 203.445312 -28.441406 200.1875 -20.484375 197.4375 -13.609375 C 194.6875 -6.734375 192.546875 -1.21875 191.015625 2.9375 C 189.484375 7.101562 188.675781 9.269531 188.59375 9.4375 L 182.59375 7.890625 C 181.644531 1.847656 180.796875 -3.609375 180.046875 -8.484375 C 179.304688 -13.359375 178.679688 -18.035156 178.171875 -22.515625 C 177.660156 -26.992188 177.285156 -31.429688 177.046875 -35.828125 C 176.804688 -40.234375 176.6875 -44.953125 176.6875 -49.984375 C 176.6875 -54.066406 176.863281 -58.738281 177.21875 -64 C 177.570312 -69.269531 178.082031 -74.847656 178.75 -80.734375 C 179.425781 -86.628906 180.210938 -92.679688 181.109375 -98.890625 C 182.015625 -105.097656 183 -111.1875 184.0625 -117.15625 C 185.125 -123.132812 186.242188 -128.816406 187.421875 -134.203125 C 188.597656 -139.585938 189.816406 -144.4375 191.078125 -148.75 C 184.398438 -138.769531 178.289062 -128.710938 172.75 -118.578125 C 167.207031 -108.441406 161.957031 -98.5 157 -88.75 C 152.050781 -79.007812 147.257812 -69.5625 142.625 -60.40625 C 137.988281 -51.25 133.234375 -42.660156 128.359375 -34.640625 C 123.492188 -26.628906 118.347656 -19.285156 112.921875 -12.609375 C 107.503906 -5.929688 101.550781 -0.21875 95.0625 4.53125 C 88.582031 9.289062 81.410156 12.984375 73.546875 15.609375 C 65.691406 18.242188 56.894531 19.5625 47.15625 19.5625 C 39.757812 19.5625 32.78125 18.539062 26.21875 16.5 C 19.664062 14.457031 13.910156 11.585938 8.953125 7.890625 C 4.003906 4.203125 0.0976562 -0.269531 -2.765625 -5.53125 C -5.640625 -10.800781 -7.078125 -16.617188 -7.078125 -22.984375 C -7.078125 -30.210938 -5.523438 -36.675781 -2.421875 -42.375 C 0.679688 -48.070312 4.785156 -52.863281 9.890625 -56.75 C 15.003906 -60.644531 20.898438 -63.613281 27.578125 -65.65625 C 34.265625 -67.695312 41.179688 -68.71875 48.328125 -68.71875 C 52.410156 -68.71875 56.554688 -68.441406 60.765625 -67.890625 C 64.972656 -67.347656 69.097656 -66.445312 73.140625 -65.1875 C 77.191406 -63.925781 81.101562 -62.253906 84.875 -60.171875 C 88.644531 -58.085938 92.140625 -55.515625 95.359375 -52.453125 L 90.765625 -48.328125 C 90.765625 -48.328125 89.914062 -49.050781 88.21875 -50.5 C 86.53125 -51.957031 84.015625 -53.550781 80.671875 -55.28125 C 77.335938 -57.007812 73.117188 -58.597656 68.015625 -60.046875 C 62.910156 -61.503906 56.9375 -62.234375 50.09375 -62.234375 C 44.59375 -62.234375 39.25 -61.445312 34.0625 -59.875 C 28.875 -58.300781 24.253906 -55.984375 20.203125 -52.921875 C 16.160156 -49.859375 12.921875 -46.085938 10.484375 -41.609375 C 8.054688 -37.128906 6.84375 -31.941406 6.84375 -26.046875 C 6.84375 -19.992188 8.132812 -14.59375 10.71875 -9.84375 C 13.3125 -5.09375 16.769531 -1.085938 21.09375 2.171875 C 25.414062 5.441406 30.328125 7.921875 35.828125 9.609375 C 41.328125 11.296875 46.988281 12.140625 52.8125 12.140625 C 61.457031 12.140625 69.296875 10.703125 76.328125 7.828125 C 83.359375 4.960938 89.878906 0.941406 95.890625 -4.234375 C 101.898438 -9.421875 107.515625 -15.628906 112.734375 -22.859375 C 117.960938 -30.097656 123.050781 -38.078125 128 -46.796875 C 132.957031 -55.515625 137.953125 -64.84375 142.984375 -74.78125 C 148.015625 -84.726562 153.316406 -95.003906 158.890625 -105.609375 C 164.472656 -116.222656 170.484375 -127.03125 176.921875 -138.03125 C 183.367188 -149.03125 190.484375 -159.953125 198.265625 -170.796875 L 203.6875 -167.96875 C 201.09375 -160.34375 199.007812 -152.304688 197.4375 -143.859375 C 195.863281 -135.410156 194.664062 -126.726562 193.84375 -117.8125 C 193.019531 -108.894531 192.46875 -99.878906 192.1875 -90.765625 C 191.914062 -81.648438 191.738281 -72.648438 191.65625 -63.765625 C 191.582031 -54.890625 191.523438 -46.226562 191.484375 -37.78125 C 191.441406 -29.332031 191.226562 -21.335938 190.84375 -13.796875 C 193.507812 -20.628906 196.726562 -28.601562 200.5 -37.71875 C 204.269531 -46.832031 208.429688 -56.457031 212.984375 -66.59375 C 217.546875 -76.726562 222.398438 -87.039062 227.546875 -97.53125 C 232.703125 -108.03125 237.96875 -118.070312 243.34375 -127.65625 C 248.726562 -137.238281 254.191406 -146.019531 259.734375 -154 C 265.273438 -161.976562 270.71875 -168.5625 276.0625 -173.75 C 281.957031 -179.40625 287.867188 -183.390625 293.796875 -185.703125 C 299.734375 -188.023438 305.410156 -189.1875 310.828125 -189.1875 C 316.171875 -189.1875 320.984375 -188.300781 325.265625 -186.53125 C 329.554688 -184.769531 333.191406 -182.453125 336.171875 -179.578125 C 339.160156 -176.710938 341.441406 -173.394531 343.015625 -169.625 C 344.585938 -165.851562 345.375 -161.960938 345.375 -157.953125 C 345.375 -155.753906 345.132812 -153.472656 344.65625 -151.109375 Z M 338.65625 -152.40625 "/></g></g></g></svg>